<?xml version="1.0" encoding="utf-8" ?>
<svg xmlns="http://www.w3.org/2000/svg" xmlns:xlink="http://www.w3.org/1999/xlink" width="1671" height="530">
	<path fill="#E00A15" transform="matrix(1.00036 0 0 1.00076 -140.851 -377.885)" d="M1580.5 805.123L1584.7 808.763L1463.2 816.819L1460.62 817.082L1459.75 816.293C1462.22 815.394 1465.69 816.152 1468.38 815.893L1536.5 809.6C1551.22 808.25 1565.65 805.455 1580.5 805.123Z"/>
	<path fill="#E00A15" transform="matrix(1.00036 0 0 1.00076 -140.851 -377.885)" d="M1714.84 794.106C1714.88 794.113 1716.5 795.144 1716.56 795.184C1719.6 793.843 1722.33 794.683 1725.47 795.244L1727.81 798.855L1730.6 799.414C1726.22 801.41 1720.65 801.246 1715.89 801.422L1688.44 802.42L1656.33 804.512L1650.47 804.425L1649.86 803.165L1652.34 802.482L1652.34 800.501L1653.75 800.1C1655.16 799.499 1655.67 798.988 1657.27 799.065L1656.76 800.708L1658.91 801.566L1660.71 800.352L1658.59 799.738L1659.12 798.679C1660.52 798.076 1661.28 797.632 1662.82 797.794C1664.36 797.957 1663.62 798.014 1664.86 797.905C1669.08 797.533 1672.94 798.185 1677.18 797.446C1678.6 797.198 1679.17 797.875 1680.38 798.572C1683.23 794.302 1698.87 797.92 1704.31 794.534L1704.84 794.168C1708.34 794.947 1711.49 795.689 1714.84 794.106Z"/>
	<path fill="#E00A15" transform="matrix(1.00036 0 0 1.00076 -140.851 -377.885)" d="M183.774 804.265L189.093 826.139C189.792 828.783 191.025 831.09 191.222 833.862C191.302 834.991 191.317 835.517 191.727 836.616C194.484 844 195.877 853.111 197.344 860.907L196.406 861.839L193.734 855.678L192.656 856.31C191.217 854.555 190.611 853.4 190.301 851.127L190.23 850.52L189.323 850.499L188.442 852.864C189.916 859.987 191.436 864.982 195.332 871.145C197.091 871.756 198.562 872.569 200.156 873.504L202.367 880.527L200.818 882.403L201.495 883.049L203.267 882.872L202.813 885.216L203.906 886.181L203.906 887.09C202.35 886.798 200.78 886.578 199.4 885.756L198.584 885.246C196.647 885.315 194.403 884.932 192.939 883.579C186.46 877.586 186.227 859.046 185.594 850.594C185.341 847.223 184.609 843.572 184.857 840.205C185.002 838.229 186.167 836.343 186.178 834.383C186.192 831.802 184.896 829.015 184.665 826.374L183.774 804.265Z"/>
	<path fill="#E00A15" transform="matrix(1.00036 0 0 1.00076 -140.851 -377.885)" d="M1702.25 389.585C1705.39 389.206 1708.64 390.002 1711.82 389.924C1716.66 389.804 1721.56 389.126 1726.38 388.603C1726.68 391.66 1726.88 397.087 1729.33 399.132L1729.79 399.473L1729.38 399.862C1727.92 401.494 1727.76 402.843 1727.91 404.958C1729.54 405.114 1730.2 405.52 1731.5 406.505C1730.41 411.717 1734.15 415.736 1733.17 420.842L1732.32 418.696L1731.09 418.444C1731.42 420.313 1732.14 421.571 1733.34 423.015L1734.05 423.853C1734.6 436.517 1741.13 514.435 1738.59 519.418C1737.76 518.548 1737.09 517.621 1735.9 517.258L1735.31 517.158C1734.82 513.385 1734.52 509.584 1732.97 506.069L1730.82 508.371C1730.65 510.177 1730.65 511.107 1729.48 512.576L1728.3 504.029C1727.3 507.93 1726.05 511.909 1727.02 515.905C1727.37 517.359 1727.69 518.313 1727.25 519.795C1726.81 521.273 1726.93 521.111 1727.34 522.521L1728.84 523.253C1727.44 524.739 1726.39 526.07 1725.38 527.853C1726.72 528.006 1726.87 528.02 1727.9 528.879L1725.6 531.692L1726.41 532.806L1727.19 531.778L1727.97 533.291L1728.92 532.701C1729.48 529.338 1730.42 525.972 1731.62 522.784C1732.63 522.532 1733.57 522.34 1734.48 521.822C1736.07 520.913 1736.73 520.756 1738.59 520.758C1741.42 525.013 1741.74 558.745 1742.55 566.857C1738.95 572.593 1738.69 585.909 1739.35 592.775C1739.43 593.635 1739.59 594.388 1739.45 595.247C1738.97 598.357 1738.32 601.192 1739.99 603.897L1739.06 606.687C1737.82 606.671 1737.37 605.927 1736.43 605.167L1736.52 608.353C1738.05 608.242 1738.11 608.229 1739.4 609.055C1739.82 611.939 1740.41 614.519 1739.53 617.371C1738.56 615.175 1738.33 612.867 1737.98 610.516L1736.01 609.993L1734.57 611.208L1736.89 611.697C1736.01 614.033 1736.92 623.934 1737.18 626.872L1739.06 627.297L1739.97 626.403C1739.21 623.299 1738.52 621.183 1739.8 618.141C1741.21 622.645 1741.22 628.236 1740.56 632.884C1740.22 631.446 1739.99 630.488 1739.06 629.322L1737.45 630.26C1737.08 633.552 1736.59 634.364 1738.59 637.177C1737.56 638.504 1737.74 639.756 1737.74 641.354L1737.75 642.089C1735.68 642.433 1734.07 642.775 1732.21 643.751L1734.31 644.402L1733.53 645.508C1731.2 645.098 1729.71 645.038 1727.44 645.853C1726.41 646.221 1725.71 646.637 1724.6 646.533C1723.58 646.438 1722.75 646.465 1721.72 646.555L1729.22 651.049C1730.66 651.064 1732.49 651.279 1733.82 650.693L1736.16 649.507L1736.62 647.404L1740.15 649.462L1740.88 648.44L1740.94 647.228L1741.86 647.502L1741.7 650.62L1738.59 651.843L1739.04 654.066L1737.25 655.004L1740 656.491L1741.66 655.636C1741.99 657.508 1742.2 659.196 1742.16 661.099C1741.3 659.455 1740.37 658.421 1739.06 657.155L1738.07 657.817L1739.71 660.018L1738.34 660.246C1738.48 661.365 1738.64 662.416 1738.54 663.545C1738.43 664.81 1738.31 665.499 1738.64 666.772C1739.33 669.492 1740.47 680.193 1739.7 682.62C1739.1 684.492 1739.22 686.264 1739.28 688.208L1740.77 688.762L1741.8 688.762L1742.5 692.736C1741.58 692.182 1741.24 691.823 1740.59 690.91L1740 690.03L1738.78 690.637L1740.47 693.428L1739.53 694.318C1738.43 692.933 1737.29 691.601 1736.45 690.031C1735.8 688.819 1736.37 689.58 1735.39 688.49L1735.42 692.513L1732.97 694.911L1732.26 693.451L1733.91 693.441C1733.68 691.95 1733.34 690.387 1733.38 688.879L1733.42 688.383C1731.45 689.034 1730.76 692.535 1729.45 694.388L1729.14 693.451L1727.76 686.886L1725.48 686.05L1724.73 685.732L1723.93 686.418C1724.42 688.377 1723.69 689.705 1722.98 691.501C1722.32 693.192 1723.38 696.678 1723.59 698.622C1725.91 698.812 1726.83 698.597 1728.83 697.397L1729.39 697.053C1729.73 698.46 1730.18 700.05 1730.16 701.505C1730.11 703.765 1728.78 705.785 1727.34 707.406L1726.69 705.641C1726.99 704.337 1727.22 703.76 1726.88 702.438L1725.69 703.239C1725.71 707.078 1723.25 709.165 1722.37 712.674C1721.63 715.634 1722.42 719.348 1721.95 722.52L1720.78 723.239C1719.66 721.866 1718.46 720.057 1716.73 719.446L1713.86 718.3C1712.4 714.611 1711.95 711.175 1711.51 707.267L1708.83 712.368L1704.38 711.633C1703.31 712.721 1702.74 713.48 1701.23 713.909L1700.34 714.081L1701.78 717.363L1700.67 719.345C1700.91 721.108 1699.8 723.647 1700.16 725.054C1700.21 725.278 1701.36 726.822 1701.38 726.998C1701.41 727.225 1700.62 727.838 1700.58 728.147C1700.3 730.17 1701.53 733.721 1701.5 736.049L1701.49 736.586C1703.8 737.377 1704.35 737.903 1706.72 737.099L1707.66 734.033L1708.18 737.524C1710.18 739.149 1712.69 738.965 1715.16 739.115L1715.74 737.524L1716.33 737.524L1717.49 739.294L1720.31 738.899L1721.54 736.117C1722.04 737.016 1722.48 737.865 1722.85 738.827L1723.12 739.593L1725.47 739.101L1727.07 741.727L1728.57 741.744L1728.81 745.026C1727.77 745.705 1728.1 745.642 1727.12 745.863L1726.55 745.963L1727.59 748.13C1726.62 747.634 1725.69 747.126 1724.64 746.793L1724.08 746.637L1724.55 745.026L1723.5 746.901C1721.65 747.6 1720.22 747.974 1719.07 749.714C1724.88 752.804 1727.52 755.187 1729.6 761.436L1728.28 763.841L1730.38 763.578C1730.13 765.628 1730.45 766.084 1731.26 767.923L1729.5 767.47L1728.28 769.774C1721.46 769.055 1714.44 771.473 1707.95 770.712C1706.43 770.534 1704.97 770.178 1703.46 770.598C1696.18 772.627 1687.53 771.323 1680 771.51C1678.05 771.558 1675.75 770.818 1673.94 771.756L1673.14 772.22C1668.32 771.25 1656.54 770.64 1651.81 771.956L1650.94 772.22L1651.41 769.476C1650.06 769.4 1648.99 769.509 1647.66 769.651L1646.72 772.106L1644.38 770.128C1642.64 771.287 1640.7 771.888 1638.75 772.59L1637.25 772.061C1634.53 771.428 1631.15 771.561 1628.74 772.993L1628.26 773.297L1627.56 772.909C1625.18 771.805 1618 771.953 1615.59 772.858C1610.8 774.652 1605.55 773.559 1600.43 775.414C1599.19 775.862 1596.09 774.831 1594.69 774.531C1591.91 776.105 1589.27 775.294 1586.25 775.551C1576.94 776.343 1566.57 777.88 1557.31 776.168C1554.45 775.64 1552.12 777.154 1549.33 777.409C1543.93 777.903 1540.43 776.315 1534.84 778.474C1530.42 780.18 1524.76 779.354 1520.08 779.367C1513.31 779.386 1507.04 779.877 1500.2 779.415C1497.06 779.202 1494.02 781.355 1491.09 781.194C1489.24 781.092 1486.39 779.75 1484.53 779.181C1478.01 782.961 1468.27 781.059 1460.99 781.562C1458.2 781.755 1454.88 781.496 1452.19 782.139C1450.58 782.523 1449.14 783.478 1447.5 783.719C1443.23 784.348 1440.79 783.079 1437.06 785.579C1433.15 785.432 1429.2 786.839 1425.11 786.815L1424.06 786.805C1422.9 788.824 1421.9 789.441 1419.84 790.49C1416.24 789.026 1411.49 788.777 1407.66 789.459C1405.66 789.813 1404.91 790.457 1403.76 792.042L1412.34 791.811C1411.53 793.422 1410.29 793.109 1408.6 793.178L1364.53 796.499L1275.45 799.823C1272.91 799.912 1270.47 800.656 1267.97 800.729C1262.05 800.903 1251.04 798.891 1245.98 801.59C1241.05 804.222 1237.3 801.401 1232.34 802.029C1230.51 802.261 1229.55 803.585 1227.48 803.673C1223.27 803.852 1218.75 803.621 1214.54 803.373C1211.55 803.197 1209.36 802.145 1206.41 803.165C1208.3 803.545 1212.01 803.76 1213.59 804.609C1214.25 804.957 1214.82 806.331 1215.47 806.614C1222.47 809.666 1232.91 806.615 1239.36 811.78L1239.84 812.184L1241.72 810.214L1256.25 811.813C1261.79 812.237 1267.59 810.85 1273.06 812.297C1274.12 812.579 1274.64 812.868 1275.76 812.612C1279.74 811.708 1282.59 813.011 1286.48 813.667C1291.84 814.571 1297.53 815.431 1302.75 816.773C1309.9 818.613 1322.38 823.617 1329.37 821.766L1329.98 821.598C1333.6 820.834 1344.69 821.531 1347.66 823.47C1347.1 823.67 1346.9 823.768 1346.25 823.861C1337.86 825.059 1328.43 824.455 1319.9 824.85L1252.9 827.86L1007.08 841.508C1006.5 841.544 1000.87 841.985 1000.78 841.913C999.214 840.662 995.186 834.465 994.45 832.498C993.835 830.855 993.69 828.657 992.615 827.209C991.407 825.583 987.567 823.536 985.781 822.213L984.227 822.762C980.42 824.512 978.641 826.442 977.167 830.359C977.477 835.485 981.168 840.394 983.723 844.735L982.62 844.178C979.148 842.049 975.505 837.912 974.716 833.883L974.531 832.775C972.552 833.77 972.752 834.203 972.049 836.223C970.879 835.537 969.968 834.956 968.622 834.681L967.5 836.245L965.156 835.454C965.318 836.964 964.782 837.942 964.219 839.31C963.749 838.483 963.381 837.732 963.051 836.832L962.756 835.985L961.406 836.132L961.406 837.585C953.079 837.334 943.452 837.519 935.225 838.799L936.396 840.012L934.62 839.53L933.486 839.91L932.653 838.565L914.062 838.593L912.844 839.996L912.09 839.584C909.658 838.376 904.335 838.947 901.91 839.899C900.778 840.344 898.628 839.917 896.719 840.621C895.962 840.408 895.488 840.248 894.847 839.763C893.954 839.088 892.682 839.206 891.562 839.095C887.555 841.173 880.887 839.745 876.42 839.517L849.844 838.562L786.334 836.525L717.444 838.027C720.299 832.755 725.163 826.897 727.24 821.587L724.688 820.454C723.873 821.145 723.588 821.706 723.226 822.685C722.682 824.154 722.081 823.804 721.638 824.733C721.478 825.07 722.143 827.376 721.993 827.546C721.368 828.251 718.558 828.613 717.656 829.231C715.934 830.412 713.375 834.826 711.983 836.682C699.48 837.72 687.951 838.513 675.469 838.465C671.443 838.449 666.291 839.986 662.808 837.679L662.344 837.332C661.546 837.81 660.38 838.754 659.531 839.017C655.468 840.277 648.953 839.056 644.531 839.288L551.719 841.384L477.417 843.356L419.946 846.351L378.055 847.6C374.119 847.813 369.915 847.198 366.094 848.152C368.004 849.974 370.396 848.49 372.557 850.051L370.564 852.575C371.556 853.987 372.471 853.928 374.062 854.418L374.062 855.111C372.163 855.212 369.999 855.167 368.19 855.786L367.5 856.09C363.661 854.756 362.967 857.565 360.109 857.966C360.603 856.824 360.469 857.437 360.469 856.121C355.778 856.127 349.332 855.104 344.988 856.615L346.875 857.991C348.837 857.633 351.041 857.063 353.032 857.362C354.601 857.597 353.846 857.571 355.47 857.571L358.461 857.553C354.362 859.804 350.074 859.036 345.469 858.966C344.181 858.947 343.073 859.006 341.807 858.738C340.345 858.428 340.414 858.719 339.173 859.429L338.132 858.491L340.09 857.553L343.594 857.797L342.846 856.455C341.085 856.237 339.498 855.918 337.766 856.426C335.533 857.081 332.771 856.507 330.469 856.282L330.28 857.935L331.852 858.292C330.616 858.907 331.191 858.684 329.721 859.116L328.618 859.429L330.469 860.09L330.534 861.304L325.781 862.85L325.582 864.304C326.925 864.438 328.226 864.478 329.448 865.099C330.448 865.607 329.781 865.442 330.979 865.679L331.65 865.782C331.677 867.278 331.203 868.02 330.469 869.294C328.803 869.332 327.316 869.446 325.86 868.502L324.942 867.868C324.361 868.909 323.887 869.529 322.969 870.291L318.281 869.505L318.02 870.924L321.669 871.619C319.899 872.387 318.033 873.197 316.07 873.266C314.266 873.33 311.875 873.134 310.17 872.557L311.25 871.375L315 872.358L316.088 871.15C315.133 870.093 313.967 869.525 312.752 868.806C311.315 869.545 310.345 870.071 308.697 870.051L307.5 870.014L306.744 871.024C308.218 871.209 308.179 870.992 309.337 872.088L307.969 873.355C305.702 872.742 305.764 872.357 304.503 870.481L300.969 870.52C301.11 871.94 300.848 872.107 300.263 873.351C297.878 873.921 296.432 874.812 294.227 873.495L294.844 870.709L293.906 870.209L290.821 871.33L291.686 872.557L291.094 874.133L289.219 872.868L288.281 874.124L288.666 875.642L284.595 875.711L283.594 875.796C280.945 873.81 282.259 872.716 280.473 870.445L280.315 872.557L278.318 872.296L277.364 872.557C276.454 871.915 276.815 872.264 276.05 871.265L275.483 870.5C274.095 870.731 273.068 870.836 271.669 870.591L270.469 870.367C269.394 870.992 268.415 871.58 267.244 872.012L266.532 872.248L266.96 873.757C264.824 873.591 264.205 872.126 262.809 870.569C262.629 872.208 262.367 873.777 263.012 875.348L263.438 876.308L261.59 876.545C261.359 875.263 261.014 874.232 260.496 873.037L259.219 873.073C259.219 874.148 259.187 873.721 259.314 874.787L259.408 875.533L255.469 875.722L254.531 878.909L253.804 876.777C252.73 875.855 249.402 876.661 247.031 876.157C244.994 876.976 243.586 877.023 241.406 876.921L239.602 875.912C237.986 875.354 237.416 875.751 236.025 876.47L234.854 875.37L233.438 876.448L231.094 875.591L229.002 876.615L227.344 875.611L226.11 876.308L228.464 877.95L228.272 880.527L226.875 881.27L224.687 879.838L223.594 881.925C226.25 882.103 227.709 882.369 229.97 883.81L227.344 886.126C225.368 886.27 224.184 886.029 222.286 885.451L215.203 884.747L214.843 883.363L216.094 883.035L216.103 881.934C217.993 881.389 218.247 881.197 220.079 881.819L218.906 882.802L219.375 884.014L222.86 883.974C221.987 883.173 221.55 882.51 221.078 881.441C220.462 880.046 220.515 880.241 219.375 879.45C216.632 879.244 216.203 879.427 213.75 880.713C211.792 880.336 209.927 880.47 207.965 880.059L209.062 878.572L212.808 878.375C211.131 878.288 210.296 878.205 208.898 877.245L209.359 875.37C207.953 874.077 207.631 872.908 207.095 871.15L208.568 869.744L206.601 868.927C206.726 867.103 206.508 865.446 206.26 863.648L207.132 863.179L208.772 865.763L210.033 865.993C210.445 861.115 208.558 851.853 211.093 847.847L211.406 847.406L210.469 846.595C210.033 842.83 209.365 838.197 209.827 834.465L209.956 833.641C210.052 831.549 210.317 830.054 210.876 828.015C208.727 823.652 208.706 819.271 209.245 814.515C209.465 812.578 210.32 809.474 209.851 807.611C208.747 803.238 209.467 798.769 208.14 794.324C207.772 793.088 208.725 793.002 208.939 791.912C209.545 788.839 208.453 783.398 208.068 780.19L206.485 779.484C207.621 782.841 205.994 785.242 205.672 788.623C205.316 792.362 204.17 795.152 205.889 798.791L206.209 799.414C204.194 809.03 205.775 820.797 207.024 830.593C207.407 833.599 208.736 837.026 208.385 840.042C208.123 842.287 206.862 844.588 205.649 846.464C205.331 838.826 203.458 830.642 202.347 823.029C201.991 820.589 201.074 817.743 201.181 815.313C201.336 811.767 198.943 809.394 199.205 805.676C199.29 804.473 199.477 803.745 199.137 802.553C198.83 801.476 199.111 801.219 199.457 800.144L197.41 801.328C196.493 801.9 195.595 801.668 194.531 801.668L192.656 796.178C195.092 797.407 195.063 798.316 196.147 800.748L197.124 800.352L196.63 797.07L197.635 796.226L198.037 798.776L199.084 798.476C198.749 795.252 198.495 795.761 197.151 793.319C196.547 792.22 196.761 788.97 196.286 787.429L195.917 786.286L197.655 784.755L197.344 783.691L195.469 784.299L194.531 782.866L192.853 785.348L192.078 784.964L191.265 782.066C192.789 780.761 193.614 780.407 195.469 779.761L192.762 777.846L193.285 773.672L194.531 773.503C195.5 774.678 196.77 775.927 197.061 777.464C197.215 778.282 197.291 779.084 197.486 779.912C199.33 778.597 201.084 779.238 202.351 778.315C200.397 773.715 195.453 769.362 192.437 765.187C193.296 764.973 193.634 764.745 194.345 764.249C194.762 761.036 195.063 759.817 193.76 756.747C194.35 754.868 194.979 753.468 194.203 751.538C193.139 748.888 191.399 741.837 192.52 738.93C193.306 736.895 193.94 737.194 193.998 734.711C193.064 733.449 192.693 732.781 192.449 731.192C192.028 728.44 191.929 727.934 193.66 725.701L192.656 724.46C194.324 722.888 194.496 720.461 194.928 718.3L194.062 717.228L192.956 719.238L192.224 719.238L191.971 715.487C192.534 714.754 193.031 714.099 193.752 713.508L194.235 713.143L193.991 709.861L192.656 709.248L192.257 707.985L193.594 707.662L193.594 705.652L190.242 702.828L191.562 700.015L192.656 699.929C193.261 698.076 193.25 698.159 192.461 696.373C192.953 694.609 193.688 693.2 194.57 691.616L192.656 690.454C193.834 685.524 192.239 680.869 193.281 676.186L194.194 677.04C194.354 678.392 194.584 679.779 194.5 681.141C194.373 683.199 194.791 684.585 195.469 686.529C196.51 683.573 196.468 680.154 196.676 677.04C200.662 671.489 197.919 669.606 197.858 663.699C197.768 654.937 193.617 644.371 191.496 635.78C188.715 624.515 187.242 612.605 183.679 601.553L182.344 601.352L181.691 602.784C181.057 601.987 180.644 601.243 180.166 600.349L183.403 599.874L181.875 598.267L180.69 599.029C179.346 595.926 178.572 591.569 178.39 588.221C180.497 590.042 179.688 593.43 181.701 596.015C181.617 591.216 180.116 585.469 178.745 580.844C178.266 579.23 177.892 577.04 176.393 576.234C176.855 578.392 177.66 580.671 176.719 582.773L175.98 580.661C175.355 579.288 174.773 578.813 174.773 577.213L174.844 576.29L174.438 575.657L173.906 574.796C170.404 569.387 170.171 555.398 170.156 548.776C173.009 548.485 171.707 550.496 173.421 551.853C173.905 552.237 176.016 552.544 176.719 552.73L176.938 550.672L175.882 550.999C175.606 549.165 173.919 546.912 173.83 545.431C173.427 538.77 170.454 530.903 168.714 524.063C166.181 514.102 165.047 504.426 164.788 494.183L166.875 492.546L169.558 493.456L169.998 495.121L170.703 494.382L172.031 494.639C172.612 498.165 174.545 501.102 175.522 504.499C177.139 510.122 177.852 516.13 179.377 521.846L180.469 521.553C180.056 524.348 181.202 526.143 181.355 528.81C181.577 532.7 182.48 536.783 183.532 540.533C184.317 543.331 185.206 545.896 186.359 548.571L185.226 549.978L188.775 567.099C189.375 565.739 189.318 564.767 189.25 563.313L189.162 561.231L189.37 560.031C188.797 559.441 188.552 559.27 188.176 558.418C187.182 556.168 186.686 552.919 187.669 550.658C188.467 551.24 189.081 551.641 190.026 551.975L190.781 552.213L191.194 553.729L192.19 553.729C191.702 551.565 191.668 549.667 191.719 547.455C188.777 543.89 188.125 537.532 188.221 533.027C188.242 532.007 188.266 531.571 187.935 530.535L187.641 529.817C188.315 529.181 188.752 528.677 189.288 527.941L181.555 520.887C182.794 519.65 184.016 518.341 185.426 517.299C187.392 515.848 188.711 514.391 190.228 512.469L188.012 509.656L190.047 508.898C188.448 506.698 189.399 505.067 188.71 502.154L186.686 501.422C189.651 498.345 188.449 496.526 188.611 493.385L189.534 493.915L190.781 493.191L191.334 489.963C192.474 489.471 193.701 488.856 194.962 488.876C198.724 488.935 201.641 486.903 205.371 486.593C209.083 486.284 212.886 486.933 216.562 486.511C220.131 486.102 223.172 484.74 227.014 484.508C231.501 484.237 243.236 485.491 246.33 483.054L244.219 482.579C244.97 481.572 245.318 480.865 245.634 479.648L243.75 479.162C242.786 479.882 242.066 480.548 241.352 481.509L240.654 482.462L237.656 482.703L236.719 480.204L233.906 482.718C231.465 482.516 230.869 482.5 228.75 481.097L226.406 483.295C226.163 481.548 226.087 480.525 225 479.071L223.279 480.117L223.912 482.462C221.962 482.532 220.257 481.816 218.438 481.202L216.362 482.462L214.219 481.78L212.812 483.753C212.129 482.672 211.414 481.937 210.469 481.078C209.152 482.188 208.207 483.14 206.455 483.432C205.245 483.634 204.991 483.675 203.994 484.335L202.969 485.036C201.903 484.219 200.854 483.53 199.688 482.865L197.509 484.464L195.734 483.031C194.827 483.042 194.133 483.046 193.255 482.767L192.656 482.546L190.541 483.602L190.585 480.586C191.284 480.012 191.48 479.78 192.23 479.386C194.944 477.962 199.873 478.062 202.96 477.82C218.91 476.568 235.018 477.69 251.003 476.99L333.425 472.401L424.231 468.93L450.925 467.625C453.982 467.536 457.248 468.323 460.192 468.075L489.87 464.942C494.182 464.664 498.637 463.946 502.779 465.461L503.469 465.745L504.901 464.832C510.428 462.302 519.699 462.856 525.882 462.421L571.734 459.103L695.523 450.516C704.632 450.036 719.289 447.111 727.872 449.641L726.094 450.549L726.47 452.454C723.523 453.378 721.737 455.904 719.105 457.321C717.237 458.327 714.993 457.717 713.145 458.908C712.08 459.595 712.281 459.422 711.094 459.268L709.688 461.009L708.532 459.956C707.487 460.437 707 460.934 706.32 461.832L705.565 462.846C702.567 463.039 700.441 463.297 697.683 464.629L697.031 464.958L695.274 461.714C694.229 462.872 693.71 463.36 693.328 464.92C693.061 466.01 692.946 466.462 692.344 467.391C691.569 467.451 690.898 467.459 690.119 467.382L689.39 467.298L690.378 469.333L688.732 471.347C688.398 469.954 688.227 469.216 687.188 468.202C685.83 469.656 685.36 469.829 683.369 470.152L682.562 470.271L682.867 474.116L745.706 471.386L859.688 464.258L895.781 462.551C900.9 462.236 905.542 463.111 910.755 462.128C919.29 460.519 928.807 461.014 937.521 460.413L987.268 456.109C993.004 455.562 1001.1 456.099 1006.11 453.392C1005.66 452.971 1004.83 452.23 1004.53 451.723C1003.57 450.102 1003.43 449.047 1002.07 447.504L1001.61 446.999L1003.03 445.89L1007.34 446.816C1008.33 444.996 1008.65 443.886 1008.73 441.81L1008.75 441.201L1017.65 435.158C1019.51 437.123 1022.43 437.857 1024.73 439.326C1025.2 440.732 1025.41 441.71 1026.56 442.716L1027.74 440.958C1029.41 443.023 1029.14 443.49 1029.19 446.063L1026.56 444.89L1025.02 446.437L1025.62 447.372C1026.8 448.813 1027.68 450.13 1028.65 451.736L1029.56 451.737L1030.78 451.726C1033.08 451.73 1034.89 451.231 1037.09 450.579L1037.61 450.823C1044.32 453.693 1056.28 451.196 1063.51 450.365C1068.02 449.846 1072.67 450.563 1077.19 450.15C1079.8 449.911 1082.3 448.9 1084.88 448.707C1088.48 448.436 1096.68 449.541 1099.77 447.95L1100.62 447.454C1101.11 447.801 1101.38 448.052 1102.03 448.169C1104.49 448.61 1107.06 448.165 1109.05 446.828L1108.12 443.546C1105.53 441.935 1104.48 443.972 1101.85 444.015C1100.97 444.029 1099.19 443.213 1098.28 442.937L1097.45 444.952C1096.14 444.536 1096.65 444.755 1095.4 444.129L1094.53 443.679L1092.43 445.926C1087.81 442.808 1080.85 444.363 1075.26 442.768L1074.38 442.507C1073.69 443.673 1073 444.489 1072.03 445.431L1065.47 442.406C1065.15 441.352 1064.83 440.49 1064.26 439.545L1062.96 439.483C1061.04 438.26 1061.27 436.924 1060.78 434.76C1060 437.358 1059.36 438.937 1057.03 440.416L1057.15 438.241C1056.15 438.266 1055.75 438.313 1054.87 438.862L1054.22 439.317C1052.74 437.387 1052.72 436.881 1052.41 434.565L1050.75 436.044L1050.94 437.919L1049.53 438.733L1046.72 437.964C1046.41 436.145 1046.31 435.031 1044.89 433.7C1043.46 434.845 1043.67 435.723 1043.33 437.451C1041.11 438.118 1040.25 438.779 1038.05 437.919L1038.49 434.637L1036.89 432.959L1035.47 433.601L1024.08 432.868C1029.33 431.621 1035.23 431.573 1040.62 431.121L1078.03 428.74L1186.88 421.863L1267.59 416.776C1275.61 416.331 1286.52 414.237 1294.22 415.862L1291.19 416.698C1294.72 417.92 1296.94 415.343 1300.31 414.753C1305.77 413.798 1312.1 414.048 1317.69 413.658L1415.84 407.63L1444.22 406.476C1444.6 408.136 1444.81 408.99 1445.96 410.315C1447.73 409.249 1451.1 406.533 1452.95 406.11C1459.17 404.692 1468.16 405.681 1474.76 405.383L1544.13 402.125L1657.02 394.847C1672.18 393.576 1687.08 390.471 1702.25 389.585ZM858.997 532.035C845.466 533.791 831.851 536.863 819.692 543.279C814.723 545.902 809.459 549.43 805.23 553.113C802.77 555.256 798.577 561.366 795.938 562.517C794.909 562.966 793.213 562.628 792.215 563.106C791.796 563.307 790.597 565.194 790.312 565.215C789.672 565.261 787.817 563.681 787.031 563.482C785.92 563.202 783.526 563.939 782.435 564.303C781.193 564.718 780.493 564.689 779.202 564.592C776.606 564.397 774.382 565.492 772.031 566.456C768.835 565.666 765.608 564.582 762.291 564.751L758.438 567.324C756.021 566.337 755.719 566.438 753.281 566.905L752.344 567.785C748.76 563.401 753.168 552.192 744.844 551.868C734.095 551.45 721.419 554.398 710.679 555.809C707.036 556.288 702.35 556.035 698.906 557.073C697.767 557.416 696.929 558.067 696.094 558.878C693.166 562.931 696.407 567.709 693.281 570.592L692.756 570.529C690.982 570.354 689.837 570.536 688.121 570.963C683.687 572.065 678.594 570.816 674.063 570.608C670.747 570.456 668.539 571.329 665.14 570.528C663.732 570.196 662.369 570.27 660.938 570.35C657.424 572.827 656.517 573.162 652.192 572.416L650.188 572.015C648.051 571.598 646.181 571.902 644.062 572.271L641.25 570.917L640.254 571.381C636.943 572.892 631.422 574.649 627.938 573.183C625.239 572.048 622.635 566.769 621.281 566.374C619.577 565.878 613.616 567.303 611.613 567.543L582.89 570.934C579.808 571.274 575.423 570.93 572.608 572.149C570.974 572.856 569.688 574.665 568.594 576.015C564.226 576.186 559.203 576.311 554.987 577.407C553.022 577.918 551.547 577.754 549.578 577.389C542.857 572.306 512.153 582.315 501.557 579.974C499.17 579.446 496.027 580.731 493.625 581.146C490.58 581.671 487.103 581.37 484.062 580.923L481.958 581.861L481.753 583.015C480.059 582.847 479.421 582.653 478.125 581.538L476.891 581.742C474.018 582.204 471.934 582.732 469.219 581.374L465.469 583.985L461.719 581.448L460.257 581.861L458.906 585.171C458.157 583.579 458.014 583.34 456.562 582.364C453.938 582.109 452.205 581.919 449.688 582.815C447.231 583.69 444.708 581.966 441.845 583.014C439.852 583.743 438.417 583.388 436.406 582.922C435.9 584.001 435.687 584.979 435.469 586.148C433.098 585.989 432.55 586.275 430.781 584.584L431.011 582.559L430.427 582.766C423.838 584.843 414.93 582.545 407.957 582.692L370.781 584.327L371.184 584.967C371.672 585.836 371.708 586.275 371.719 587.239C370.048 586.527 369.121 585.771 367.802 584.57L365.738 587.487L366.094 588.686C364.335 588.833 363.522 588.369 361.875 587.99L361.023 587.91C359.632 587.76 359.155 587.116 358.285 586.081C359.367 585.782 359.867 585.991 360.938 586.237L362.738 584.674L358.203 583.736L357.823 584.762C356.849 587.254 354.778 589.201 352.969 591.108L351.777 590.816L350.156 591.657L349.422 591.306C348.334 590.854 347.559 590.856 346.406 590.858L344.149 593.114L344.531 594.387C348.523 593.595 353.085 593.912 356.844 592.827C360.309 591.827 364.49 592.91 368.261 592.228C373.116 591.35 375.317 592.507 378.546 587.948C379.093 587.176 378.894 586.352 378.917 585.426C380.832 587.177 379.778 589.525 380.809 590.611C381.401 591.236 385.987 591.935 386.917 591.879C391.958 591.578 397.161 590.553 402.269 590.158C405.198 589.932 408.224 590.336 411.094 590.018C415.076 589.577 417.363 588.711 421.522 589.363C418.184 592.854 413.31 588.742 413.41 596.647C413.482 602.349 414.737 608.379 415.432 614.08L420.009 651.253L432.308 754.589L436.704 793.817C437.248 798.399 437.21 805.533 439.564 809.455C440.808 810.031 441.766 810.432 443.168 810.372C450.708 810.051 458.426 808.504 465.938 807.643L527.663 800.353L563.856 796.089C568.738 795.453 574.264 795.408 578.906 793.776C579.23 793.04 580.048 791.718 580.14 790.974C580.646 786.87 579.021 780.441 578.522 776.221C577.389 766.638 577.244 754.724 574.89 745.495C574.574 744.259 573.854 743.598 572.711 743.115C567.861 741.066 553.743 744.724 547.969 745.45L484.807 752.893C483.68 741.769 480.822 728.732 481.463 717.715C500.996 713.998 521.501 712.634 541.291 710.343C545.121 709.899 554.867 709.861 557.812 708.188C558.533 707.778 559.077 707.115 559.709 706.579C561.114 701.824 559.28 695.957 558.714 691.077L555.101 661.099C552.725 658.94 551.627 659.044 548.438 659.229L475.045 667.879L471.338 636.69L534.32 629.1C539.432 628.482 547.95 628.593 552.656 626.852C553.274 626.623 554.368 625.454 554.929 624.996C555.257 611.22 551.669 596.518 550.657 582.636C554.562 580.767 564.306 581.377 569.162 581.181L589.685 753.498L591.982 773.549C592.653 779.694 592.017 785.896 596.239 790.736C600.453 792.344 642.575 787.354 646.318 785.47C647.714 784.767 648.001 783.823 648.782 782.535C649.589 768.995 645.994 753.692 644.387 740.147L636.741 673.86L699.421 749.188L713.972 766.675C716.689 770 719.544 774.355 723.099 776.749L756.079 772.939C761.129 772.369 768.53 772.503 772.969 770.049C775.082 767.394 774.994 765.561 774.637 762.288L760.155 639.531L753.549 584.95C753.076 580.58 751.209 573.53 752.344 569.421L756.094 571.033L757.031 569.801L757.381 570.4C757.895 571.258 757.671 570.929 758.326 571.704C761.525 570.163 763.216 569.262 766.834 569.405C768.295 569.462 769.702 568.958 771.094 568.561L772.146 568.902C773.753 569.395 774.9 568.832 776.557 569.309C779.103 570.043 780.88 568.182 783.281 568.191C784.913 568.198 786.416 568.775 787.969 569.183L789.715 569.564L790.876 569.821C782.351 588.961 779.48 609.051 787.025 629.151C792.282 643.155 803.652 655.445 817.425 661.372C822.428 663.524 827.96 665.794 833.234 667.134C844.246 669.932 876.896 673.478 881.436 684.866C882.933 688.623 882.908 694.545 881.01 698.139C878.452 702.984 871.585 704.993 866.66 706.139C856.137 708.588 842.37 704.246 833.478 698.492C827.684 694.743 825.388 689.997 817.969 690.29C811.524 696.118 806.345 705.419 801.104 712.47C796.898 718.13 789.908 725.156 787.881 731.897C788.845 736.883 791.682 739.247 795.84 742.047C810.714 752.065 824.089 756.003 841.406 759.719C840.082 760.847 840.965 760.458 839.301 760.481C836.707 760.516 829.659 765.369 827.841 767.414L825.959 769.875C821.102 776.457 808.663 780.37 808.341 790.222C808.314 791.044 808.649 791.709 809.059 792.381L797.723 804.649C811.058 797.534 822.512 787.43 833.651 777.326C837.085 774.211 840.885 771.751 844.143 768.469L841.879 767.531C843.444 766.196 845.095 764.479 847.031 763.766L847.031 762.549L847.817 762.755L850.026 763.211C852.353 760.878 853.509 760.268 856.983 760.273C880.653 760.304 905.393 752.482 922.602 735.648C925.973 732.352 928.231 728.092 933.281 727.506C935.513 728.858 938.126 727.76 940.624 727.209C939.465 726.518 938.649 726.609 937.338 726.54C935.106 726.424 933.927 725.922 932.123 724.663C932.205 723.141 932.567 722.527 933.374 721.32C937.857 714.617 939.727 705.185 941.497 697.411C942.13 694.632 941.462 690.977 941.389 688.071C941.065 675.187 939.623 661.284 932.365 650.22C915.767 624.915 888.905 622.25 862.16 615.214C857.367 613.953 850.707 612.75 846.563 610.023C842.12 607.099 840.835 602.567 841.857 597.498C842.561 594.008 845.433 591.36 848.326 589.549C856.217 584.609 866.06 585.189 874.717 587.227C878.863 588.204 882.971 590.157 886.406 592.679C891.438 596.373 892.107 599.512 898.917 598.74C903.73 594.867 907.357 587.979 910.879 582.915L928.056 558.418C927.974 555.272 928.387 553.939 925.985 551.618C911.304 537.43 882.45 531.226 862.751 531.827L858.997 532.035ZM1035.33 517.038C1014.53 519.469 994.872 526.074 978.539 539.49C974.02 543.202 969.874 548.648 965.202 551.832C964.228 552.496 963.868 553.192 963.281 554.189L959.258 555.53C960.482 556.008 960.32 555.785 961.159 557.011C942.899 585.285 937.195 617.956 944.286 650.972C950.374 679.319 965.481 705.644 990.35 721.449C1011.36 734.799 1032.36 738.244 1056.93 737.086C1087.94 732.59 1113.6 721.433 1132.73 695.577C1149.31 673.166 1155.66 640.927 1151.54 613.539C1148.63 594.168 1142.99 576.949 1133.31 559.936C1132.73 558.916 1132.57 558.437 1132.48 557.301L1131.52 556.964C1127.97 555.548 1124.5 548.382 1121.55 545.626C1101.01 526.473 1077.25 516.219 1049.06 516.451C1044.63 516.487 1039.69 516.264 1035.33 517.038ZM1560.19 455.19L1507.56 461.348C1498.86 462.378 1489.19 462.624 1480.77 464.837L1506.88 683.773L1593.97 673.191C1624.19 665.915 1651.28 651.51 1667.97 624.339C1684.26 597.794 1686.17 564.974 1679.03 535.173C1672.62 508.39 1660.09 484.838 1635.97 470.091C1614.6 457.025 1584.97 451.973 1560.19 455.19ZM1231.53 494.523L1151.31 504.321C1150.05 510.556 1152.76 520.286 1153.55 526.65L1159.32 576.33L1171.6 680.238C1173.34 694.344 1173.98 709.514 1177.06 723.357L1215.43 718.973C1219.72 718.382 1224.61 718.6 1228.59 716.862C1228.89 716.179 1229.77 714.755 1229.82 714.081C1230.21 709.299 1228.23 702.36 1227.68 697.39L1220.16 633.032L1230.94 631.974L1249.37 659.512L1283.88 711.033L1324.05 706.118C1329.35 705.551 1340.34 705.645 1344.26 702.359C1344.34 701.669 1344.72 700.161 1344.58 699.546C1344.39 698.693 1342.7 696.727 1342.17 695.945L1332.49 682.688L1284.22 617.051C1298.47 608.558 1310.34 597.101 1314.67 580.53C1318.51 565.786 1316.52 553.334 1313.44 538.664C1310.54 524.836 1299.53 511.645 1287.91 504.183C1272.14 494.048 1249.73 492.797 1231.53 494.523ZM1451.29 468.301L1363.74 478.697C1351.77 480.163 1338.41 480.537 1326.79 483.399C1325.23 485.692 1324.97 486.209 1325.09 489.087C1325.63 502.602 1328.14 516.694 1329.85 530.139L1336.8 587.487L1347.03 672.821C1347.94 680.925 1348.16 689.141 1349.56 697.201C1350.06 700.087 1350.49 700.675 1352.81 702.241C1363.95 701.999 1375.3 699.899 1386.37 698.607L1453.79 690.532L1477.29 687.824C1481.54 687.358 1486.16 687.312 1490.16 685.748C1493.19 681.366 1490.84 674.071 1490.16 668.985L1487.62 646.835C1487.09 642.588 1487.36 638.248 1484.53 634.965C1475.76 634.284 1465.43 638.567 1457.22 637.125C1455.84 636.883 1455.79 637.041 1454.53 637.49C1448.85 639.52 1440.72 639.415 1434.67 640.149C1422.61 641.611 1408.65 644.848 1396.6 644.288C1395.09 632.937 1394.75 620.827 1392.2 609.703C1401.95 608.275 1466.38 601.928 1469.53 600.138C1470.23 599.743 1471.19 598.42 1471.78 597.802C1471.88 587.989 1469.74 577.261 1468.57 567.47C1467.99 562.577 1468.08 556.871 1466.22 552.322C1465.6 551.985 1464.55 551.196 1463.91 551.055C1458.89 549.95 1448.94 552.468 1443.43 553.13L1386.59 559.907L1382.72 528.811L1466.62 518.28C1466.2 506.095 1464.46 494.164 1462.8 482.103C1462.22 477.866 1462.34 473.387 1460.92 469.333C1458.4 467.082 1456.11 467.909 1452.82 468.081C1451.89 468.13 1452.24 468.095 1451.29 468.301ZM341.076 600.582C311.067 602.197 283.208 612.472 262.743 635.311C243.965 656.268 234.851 685.468 236.385 713.44C238.089 744.502 249.35 774.882 272.916 795.954C294.611 815.354 321.569 823.521 350.377 821.478C377.556 819.55 402.307 808.254 420.212 787.488C422.314 785.05 424.094 782.656 425.459 779.722C423.313 774.056 416.548 769.891 411.888 766.018L387.26 745.51L386.281 745.347C376.158 758.514 367.741 766.098 350.728 768.388C339.498 769.899 325.822 766.462 316.862 759.466C304.323 749.674 296.345 734.616 294.494 718.851C292.45 701.436 295.031 684.177 306.325 670.101C313.613 661.018 325.839 654.381 337.406 653.218C345.585 652.396 354.731 653.016 362.344 656.42C364.56 657.411 374.262 664.909 375.395 664.79C375.504 664.779 377.331 662.64 377.46 662.49C383.595 655.355 388.883 647.01 394.5 639.428C397.891 634.85 403.398 629.479 405.01 624.059C404.066 619.48 401.186 617.919 397.402 615.417C381.21 604.708 360.29 600.391 341.076 600.582ZM307.76 489.026C307.869 491.193 308.311 492.267 307.031 494.072L304.851 494.334L303.281 496.824L301.35 495.59L301.355 497.52C304.424 498.246 306.888 497.111 309.676 497.781C313.352 498.664 318.607 497.911 322.365 497.354L331.406 495.483L326.981 495.089C323.689 494.642 320.98 489.11 317.344 489.302C315.587 489.394 313.427 490.495 311.719 490.417C310.488 490.36 309.034 488.615 307.76 489.026Z"/>
	<path fill="#E00A15" transform="matrix(1.00036 0 0 1.00076 -140.851 -377.885)" d="M1234.93 540.538C1239.7 539.067 1248.57 540.818 1253.09 542.982C1257.03 544.867 1261.06 549.766 1262.21 553.954C1262.99 556.825 1264.2 565.118 1262.64 567.603L1258.83 573.752C1253.89 580.486 1243.66 582.941 1235.84 583.996L1214.74 586.29C1212.53 583.031 1209.97 549.972 1209.08 543.46L1234.93 540.538Z"/>
	<path fill="#E00A15" transform="matrix(1.00036 0 0 1.00076 -140.851 -377.885)" d="M1560.91 506.572C1572.06 506.022 1584.28 505.906 1594.72 510.382C1597.8 511.7 1600.27 514.063 1603.31 515.401C1609.94 518.323 1616.62 526.708 1619.48 533.27C1626.62 549.677 1630.84 572.496 1623.85 589.684C1618.28 603.378 1609.07 612.434 1595.38 618.157C1581.81 622.84 1569.66 624.591 1555.49 626.334L1545.38 538.636L1545.23 537.788L1548.28 536.165L1547.34 535.355L1545.47 536.453C1542.87 528.699 1543.07 518.359 1541.97 510.125L1543.12 508.92C1547.42 508.408 1555.31 506.272 1558.65 508.718L1560.91 506.572ZM1549.28 541.538L1552.5 544.089C1555.03 544.527 1555.89 544.379 1557.75 546.227C1558.87 550.042 1556.88 552.232 1557.07 555.604C1557.19 557.699 1562.01 559.508 1561.76 563.034C1561.66 564.521 1562.31 565.563 1562.96 566.857L1561.88 567.372L1560.47 566.095C1560.06 567.651 1560.24 568.308 1560.79 569.805L1558.97 570.017L1558.22 572.484C1559.33 573.847 1561.72 577.423 1563.57 577.57C1566.03 577.766 1567.69 576.894 1569.43 575.245L1569.84 574.839C1570.93 576.167 1570.57 576.825 1570.53 578.462L1571.72 576.746L1574.72 571.141L1573.44 568.555L1575.79 565.451C1574.83 564.139 1575.05 563.81 1573.36 563.545L1571.45 561.231L1577.38 555.053C1576.44 551.765 1576.45 550.362 1573.62 548.185L1571.82 546.691C1567.98 543.408 1556.34 540.271 1551.11 540.938C1550.2 541.053 1550.01 541.198 1549.28 541.538Z"/>
	<path fill="#E00A15" transform="matrix(1.00036 0 0 1.00076 -140.851 -377.885)" d="M1042.9 568.624C1047.62 568.498 1052.33 568.696 1056.95 569.755C1075.83 574.084 1081.88 585.825 1091.06 600.768C1089.61 604.42 1087.81 607.59 1085.76 610.93C1088.25 612.286 1088.72 609.008 1091.77 609.112L1090.08 611.868L1091.95 612.378L1091.05 614.212L1092.19 615.855C1092.59 614.682 1092.28 615.222 1093.12 614.249C1094.44 615.708 1094.77 616.647 1095.15 618.569L1096.24 624.059C1095.57 625.2 1095.09 625.93 1095.05 627.273C1095.49 627.895 1095.75 628.164 1096.03 628.833C1098.61 634.88 1094.51 649.052 1092.11 654.843C1087.1 666.955 1077.92 676.64 1065.73 681.605L1054.86 684.383C1042.83 686.106 1030.21 683.029 1020.62 675.522C1006.25 664.27 999.643 647.85 997.604 630.161C995.611 612.867 1000.28 596.96 1011.11 583.462C1018.81 573.864 1031.13 569.83 1042.9 568.624Z"/>
	<path fill="#E00A15" transform="matrix(1.00036 0 0 1.00076 -140.851 -377.885)" d="M686.532 574.352L695.513 574.577L706.919 669.53L680.362 637.723L648.833 599.774C643.388 593.287 635.753 586.057 631.937 578.579C632.385 578.143 632.715 577.535 633.281 577.27C633.889 576.986 638.458 577.831 639.438 577.894C642.252 578.076 645.137 577.365 647.973 577.234C651.299 577.079 653.984 576.754 657.173 575.832C659.274 575.224 660.976 577.148 663.132 577.112C665.566 577.073 667.083 577.201 668.906 575.569L673.594 577.114C677.547 574.154 681.786 574.46 686.532 574.352Z"/>
</svg>
